<svg viewBox="0 0 258.38 258.58" width="258.38" height="258.58" xmlns="http://www.w3.org/2000/svg">
              <g transform="matrix(1 0 0 1 42.062 42.094)">
                <path d="M133.698 0.776C94.914 28.835 38.136 74.261 10.434 100.523C3.033 107.538 -0.636 117.499 0.090 127.674C4.250 185.928 23.352 226.609 103.620 226.609C154.658 226.609 174.257 216.666 191.542 195.690C204.336 179.889 217.129 162.046 223.390 151.149C225.159 148.017 223.118 143.930 219.307 143.930C219.307 143.930 182.695 144.475 182.695 144.475C182.695 144.475 216.313 51.445 216.313 51.445C217.674 47.359 213.999 44.362 210.324 45.724C210.324 45.724 135.332 75.690 135.332 75.690C135.332 75.690 140.231 5.134 140.231 5.134C140.776 0.912 136.829 -1.267 133.698 0.776Z" fill-rule="evenodd" fill="#FDCE35" />
                <path transform="matrix(0.971 -0.24 0.24 0.971 100.434 153.613)" d="M0.923 0.000C0.368 1.845 0.000 5.576 0.000 7.651C0.000 21.832 11.528 31.862 25.973 31.862C40.557 31.862 51.391 21.025 51.391 7.305C51.391 4.539 50.756 2.306 50.061 0.000C50.061 0.000 0.923 0.000 0.923 0.000Z" fill-rule="nonzero" fill="#FFFFFF" />
                <path transform="matrix(0.971 -0.24 0.24 0.971 119.307 148.945)" d="M0.574 0.000C0.229 1.147 0.000 3.467 0.000 4.757C0.000 13.573 7.167 19.809 16.148 19.809C25.215 19.809 31.951 13.072 31.951 4.542C31.951 2.822 31.556 1.434 31.124 0.000C31.124 0.000 0.574 0.000 0.574 0.000Z" fill-rule="nonzero" fill="#000000" />
                <path transform="matrix(1 0 0 1 39.615 153.873)" d="M25.949 24.641C11.466 24.641 -0.000 14.230 -0.000 0.000C-0.000 0.000 51.433 0.000 51.433 0.000C51.433 13.767 40.571 24.641 25.949 24.641Z" fill-rule="evenodd" fill="#FFFFFF" />
                <path transform="matrix(1 0 0 1 64.564 153.875)" d="M13.250 12.595C5.855 12.595 -0.000 7.273 -0.000 0.000C-0.000 0.000 26.264 0.000 26.264 0.000C26.264 7.036 20.717 12.595 13.250 12.595Z" fill-rule="evenodd" fill="#000000" />
              </g>
            </svg>